PathFileType	4	(X/Y/Z)	C:/Users/opensim2020/Desktop/walking_exp_matlab/subject03_walking10_straight_03.trc																																																																																																																																					
DataRate	CameraRate	NumFrames	NumMarkers	Units	OrigDataRate	OrigDataStartFrame	OrigNumFrames																																																																																																																																	
100	100	9	45	mm	100	2998	417																																																																																																																																	
Frame#	Time	LFHD			RFHD			LBHD			RBHD			C7			T10			CLAV			STRN			RBAK			LSHO			LUPA			LELB			LFRM			LWRA			LWRB			LFIN			RSHO			RUPA			RELB			RFRM			RWRA			RWRB			RFIN			LASI			RASI			LPSI			RPSI			LTHI			LKNE			LTIB			LANK			LHEE			LTOE			RTHI			RKNE			RTIB			RANK			RHEE			RTOE			*39			*40			*41			*42			*43			*44		
		X1	Y1	Z1	X2	Y2	Z2	X3	Y3	Z3	X4	Y4	Z4	X5	Y5	Z5	X6	Y6	Z6	X7	Y7	Z7	X8	Y8	Z8	X9	Y9	Z9	X10	Y10	Z10	X11	Y11	Z11	X12	Y12	Z12	X13	Y13	Z13	X14	Y14	Z14	X15	Y15	Z15	X16	Y16	Z16	X17	Y17	Z17	X18	Y18	Z18	X19	Y19	Z19	X20	Y20	Z20	X21	Y21	Z21	X22	Y22	Z22	X23	Y23	Z23	X24	Y24	Z24	X25	Y25	Z25	X26	Y26	Z26	X27	Y27	Z27	X28	Y28	Z28	X29	Y29	Z29	X30	Y30	Z30	X31	Y31	Z31	X32	Y32	Z32	X33	Y33	Z33	X34	Y34	Z34	X35	Y35	Z35	X36	Y36	Z36	X37	Y37	Z37	X38	Y38	Z38	X39	Y39	Z39	X40	Y40	Z40	X41	Y41	Z41	X42	Y42	Z42	X43	Y43	Z43	X44	Y44	Z44	X45	Y45	Z45
																																																																																																																																								
261	2.6	563.22888	1622.5719	1360.95679	559.87164	1625.9375	1493.48535	444.33786	1558.47058	1364.35669	446.12271	1562.49475	1495.18494	430.09061	1412.8894	1425.38892	390.93628	1101.06152	1427.7179	554.05414	1336.79517	1421.75439	592.61499	1170.17065	1420.94006	382.48676	1242.771	1529.77869	505.14835	1371.66125	1266.21436	467.47342	1173.11121	1204.03479	455.99863	1049.10803	1197.39563	467.58249	919.24689	1203.052	474.19147	801.40924	1239.22107	450.05215	806.95538	1188.28455	456.22189	722.96838	1202.97937	519.68732	1363.21948	1582.03101	553.42456	1144.40015	1655.98584	588.63947	1036.64392	1665.60205	629.38568	905.68689	1661.32617	669.70941	818.13129	1617.84827	648.33606	807.23615	1666.46472	682.88776	742.72223	1650.57654	559.85907	932.66266	1317.12964	550.04834	930.6109	1554.01563	395.62042	959.82623	1356.37537	391.33795	970.69495	1506.24084	552.4826	634.60449	1271.81165	604.57666	466.33459	1317.41614	601.48846	274.78461	1313.92297	638.5304	68.52576	1351.09753	603.22247	34.18203	1391.09766	791.71851	39.80627	1364.02966	440.7092	645.60919	1590.17151	412.64691	467.58841	1560.08875	295.77606	310.20947	1559.74622	190.09222	119.35974	1508.80823	139.98424	107.9409	1456.42603	309.7395	34.15508	1486.12659	NaN	NaN	NaN	NaN	NaN	NaN	NaN	NaN	NaN	NaN	NaN	NaN	NaN	NaN	NaN	NaN	NaN	NaN
262	2.61	570.29919	1623.89038	1359.51355	566.85669	1627.44568	1491.73621	451.74667	1559.54077	1362.99878	453.5061	1563.755	1493.83215	437.75003	1414.01318	1423.98108	399.23636	1102.3302	1426.75598	561.82904	1338.18945	1420.57031	600.91925	1171.73401	1419.88892	390.35858	1244.15845	1528.84607	513.35168	1372.92456	1265.09729	477.20956	1174.24792	1202.70166	466.11411	1050.16809	1196.16199	478.17215	920.37457	1201.49329	485.02463	802.40881	1237.53271	461.17908	808.06177	1186.43079	467.21927	724.01282	1201.11584	527.3208	1364.77197	1580.73096	559.93372	1145.6853	1654.729	594.01544	1037.66785	1664.67786	633.6416	906.32501	1660.80664	673.32257	818.22217	1617.69043	651.56628	807.66522	1666.23035	685.47113	742.66534	1650.6615	568.23694	934.52307	1315.69287	558.50995	931.5307	1552.64246	404.24487	961.76923	1355.34473	399.93298	971.80121	1505.19495	559.23895	636.27173	1270.61145	609.59424	467.28113	1316.28015	604.25854	275.25104	1312.83765	638.77802	68.60986	1350.78296	603.43622	34.10051	1390.67297	792.29028	39.25156	1363.70947	449.375	646.28314	1589.85193	422.07281	468.00583	1560.65662	302.38678	312.45255	1560.46252	193.52603	123.38374	1509.93445	143.43549	113.49335	1457.38892	310.26505	34.15707	1486.43591	476.2988	1667.39417	1406.6875	NaN	NaN	NaN	NaN	NaN	NaN	NaN	NaN	NaN	NaN	NaN	NaN	NaN	NaN	NaN
263	2.62	577.42126	1625.41675	1357.85303	574.20856	1629.18518	1490.26782	459.06033	1560.65808	1361.65405	460.86209	1565.11011	1492.44287	445.36734	1415.19458	1422.62585	407.47287	1103.5459	1425.66431	569.5675	1339.68835	1419.50305	609.25995	1173.37988	1418.84985	398.3898	1245.4165	1527.73181	521.47186	1374.28577	1264.00415	486.61606	1175.47949	1201.45789	476.51761	1051.53076	1194.79956	489.0426	921.7088	1199.9624	496.16116	803.61066	1235.8219	472.52557	809.39099	1184.58704	478.64203	725.19635	1199.20459	534.84869	1366.32568	1579.4397	566.37799	1147.04932	1653.55115	599.44086	1038.7019	1663.55933	637.87732	907.0509	1660.32898	677.01788	818.3822	1617.61743	654.8103	808.19635	1666.06201	688.01654	742.67889	1650.73584	576.59778	936.20508	1314.1626	566.97375	932.63617	1551.16223	412.61685	963.63623	1354.30042	408.46915	972.99402	1504.07458	565.53094	637.7099	1269.54858	613.84998	467.92474	1315.18835	606.58392	275.59076	1312.05444	639.16345	68.67614	1350.64539	603.52838	34.20735	1390.44971	792.71381	38.72559	1363.60767	458.53787	646.82727	1589.23193	432.26764	468.3588	1561.54968	309.72821	314.85059	1561.27258	197.40919	127.76815	1511.10864	147.47804	119.50449	1458.42358	310.8313	34.17275	1486.7417	484.64362	1670.20239	1410.52759	NaN	NaN	NaN	NaN	NaN	NaN	NaN	NaN	NaN	NaN	NaN	NaN	NaN	NaN	NaN
264	2.63	584.5835	1626.67627	1356.49695	582.11407	1631.07959	1489.39441	466.26505	1561.80688	1360.3324	468.15771	1566.4458	1491.05933	452.99103	1416.29517	1421.21753	415.72629	1104.74426	1424.37183	577.15936	1341.10132	1418.33789	617.56763	1175.00549	1417.75195	406.25943	1246.5188	1526.60486	529.36285	1375.59546	1262.87964	496.07104	1176.66028	1200.14526	486.74994	1052.85718	1193.43787	500.05042	923.04102	1198.41272	507.61044	804.81299	1234.04663	484.224	810.5575	1182.69116	490.41989	726.37036	1197.13904	542.18781	1367.96582	1578.10767	572.8067	1148.34924	1652.31287	604.52277	1039.78394	1662.68628	642.10876	907.7843	1659.83972	680.80139	818.87183	1617.67944	658.08923	808.789	1665.8894	690.49902	742.66302	1650.79333	584.92279	937.67786	1312.59204	575.3161	933.79828	1549.57849	421.61288	965.08539	1352.9375	416.83563	974.12476	1502.71716	571.18158	638.7301	1268.80823	617.9364	468.42065	1314.09351	608.58691	275.77817	1311.6571	639.24359	68.5935	1350.6167	603.47125	34.44633	1390.35803	793.17236	38.34196	1363.70227	467.89362	647.41882	1588.97766	443.18604	468.6189	1562.67542	317.802	317.38202	1562.41431	201.85629	132.36026	1512.40222	152.23883	125.94907	1459.40747	311.38281	34.06531	1486.89111	492.19406	1672.61609	1408.44287	NaN	NaN	NaN	NaN	NaN	NaN	NaN	NaN	NaN	NaN	NaN	NaN	NaN	NaN	NaN
265	2.64	591.62329	1627.94031	1354.83728	589.29382	1632.47241	1487.88855	473.39893	1562.91089	1359.02771	475.43311	1567.75354	1489.68945	460.38586	1417.23572	1419.89624	423.87747	1105.66187	1422.84009	584.7489	1342.4812	1417.26892	625.7616	1176.56128	1416.68237	414.00378	1247.52747	1525.41455	537.18561	1376.86938	1261.82263	505.38776	1177.8595	1198.72437	496.81528	1053.9198	1191.80139	511.23654	924.40015	1196.49414	519.46118	806.1499	1232.07825	496.30209	811.83008	1180.69775	502.578	727.54999	1195.08752	549.3996	1369.35547	1576.91101	579.18695	1149.58582	1651.14417	610.05365	1040.7854	1661.78809	646.32727	908.49481	1659.42444	684.38269	818.91522	1617.51294	661.31604	809.27075	1665.73694	692.99579	742.62195	1650.80762	593.2793	938.99268	1311.0365	583.70697	934.98566	1548.00281	429.95645	966.49634	1351.56128	425.15759	975.31262	1501.24768	576.41254	639.5141	1268.27588	621.48163	468.6857	1313.2998	610.45215	275.9295	1311.53027	639.65503	68.7098	1351.03906	603.59308	34.49878	1390.49866	793.53851	37.92535	1363.82178	477.63724	647.94049	1588.85583	454.9375	468.80786	1564.12537	326.63544	319.73657	1563.61011	207.14377	137.09747	1513.87573	157.77036	132.6803	1460.45508	312.08459	33.99234	1486.98926	497.79587	1671.23694	1402.7063	NaN	NaN	NaN	NaN	NaN	NaN	NaN	NaN	NaN	NaN	NaN	NaN	NaN	NaN	NaN
266	2.65	598.7193	1629.01001	1353.4176	596.07178	1633.54712	1486.09973	480.52292	1563.98267	1357.74927	482.49542	1569.04309	1488.40869	467.6044	1418.02954	1418.62451	431.95435	1106.52283	1421.229	592.24988	1343.70142	1416.22925	633.85632	1178.01257	1415.54285	421.64688	1248.29553	1524.15564	544.8905	1378.15247	1260.75977	514.74213	1179.09094	1197.22717	506.98828	1055.07983	1190.23987	522.44525	925.60144	1194.89453	531.56769	807.36615	1230.12061	508.52676	813.06036	1178.75488	515.14923	728.65582	1192.99768	556.48846	1370.58777	1575.71191	585.55322	1150.72058	1650.05151	615.31256	1041.66797	1660.85437	650.58173	909.09735	1659.01843	688.02563	819.005	1617.47815	664.52893	809.66809	1665.55164	695.91937	742.755	1651.00916	601.62109	940.01935	1309.46472	591.93304	936.20587	1546.39856	438.31271	967.78314	1350.00049	433.33481	976.34729	1499.6394	581.50513	640.18372	1267.87695	625.14282	468.7276	1312.39124	612.38916	276.07327	1311.49829	640.02197	68.81634	1351.47974	603.91034	34.37198	1390.70789	793.87762	37.57671	1364.11121	487.69446	648.42139	1589.01355	467.35812	468.83578	1565.72778	336.22046	321.96051	1564.99341	213.13641	142.16606	1514.95068	164.12364	139.75267	1461.56836	313.03958	34.12123	1487.11853	504.81732	1672.19312	1400.66248	NaN	NaN	NaN	NaN	NaN	NaN	NaN	NaN	NaN	NaN	NaN	NaN	NaN	NaN	NaN
267	2.66	605.78235	1629.95667	1352.01855	603.19623	1634.70789	1484.76196	487.52579	1564.94348	1356.49463	489.53876	1570.21143	1487.10815	474.81738	1418.78101	1417.31079	440.05341	1107.25427	1419.43811	599.65155	1344.77527	1415.20874	641.82147	1179.26221	1414.41943	429.1669	1248.88855	1522.72729	552.57367	1379.21814	1259.68481	523.92847	1180.14563	1195.69385	517.47723	1056.16431	1188.42383	533.95239	926.84216	1193.08289	543.94641	808.60925	1228.11951	521.06476	814.2077	1176.51526	528.1745	729.73187	1190.79382	563.41583	1371.63684	1574.53101	591.80164	1151.67761	1648.93848	620.60193	1042.44409	1659.95703	654.87927	909.62988	1658.6427	691.81781	819.10254	1617.53137	668.15582	810.07532	1665.57898	698.26361	742.29071	1650.80408	609.79462	940.80579	1307.92932	599.94305	937.33496	1544.79333	446.5976	968.82172	1348.2644	441.31296	977.24365	1497.90454	586.32904	640.59473	1267.52905	628.43677	468.74225	1311.74646	614.27435	276.17789	1311.37463	640.23322	68.78667	1351.93115	603.87848	34.85243	1391.10254	794.28821	37.29595	1364.45593	497.94885	648.69855	1589.16174	480.3172	468.71759	1567.4248	346.68155	324.04419	1566.37061	219.84862	147.09933	1516.74451	171.31674	147.00696	1462.8606	314.15271	34.28302	1487.13318	511.47964	1672.45959	1397.28955	NaN	NaN	NaN	NaN	NaN	NaN	NaN	NaN	NaN	NaN	NaN	NaN	NaN	NaN	NaN
268	2.67	612.70599	1630.65186	1350.85815	610.15729	1635.66101	1483.37781	494.4494	1565.77966	1355.25098	496.5	1571.22058	1485.85132	481.89435	1419.3031	1416.03528	447.95667	1107.76025	1417.60181	606.95612	1345.6853	1414.15662	649.6416	1180.34778	1413.30261	436.47006	1249.24756	1521.13232	560.13562	1380.18347	1258.65381	533.13141	1181.03906	1194.05725	527.81805	1057.1001	1186.75195	545.53864	927.9342	1191.16736	556.42926	809.67456	1226.10352	533.76953	815.15112	1174.47644	541.55951	730.74207	1188.64563	570.19873	1372.45654	1573.37756	597.91974	1152.44641	1647.91272	625.8562	1043.02832	1659.10437	659.20868	909.98059	1658.30872	695.7533	819.07886	1617.55847	671.74274	810.32886	1665.54541	701.1532	742.02783	1650.87622	617.8205	941.35254	1306.53003	607.86218	938.34546	1543.26526	454.65121	969.76538	1346.60059	449.04031	978.06268	1496.19141	591.35706	640.9278	1266.75488	631.87726	468.52182	1311.16284	616.38062	276.23883	1311.08594	640.22656	68.88614	1352.34546	603.98431	34.81044	1391.19897	794.56549	37.04258	1364.70081	508.47528	648.81635	1589.38928	493.92068	468.32294	1569.12158	358.16818	326.11697	1567.86975	227.52948	152.01395	1518.51453	179.31305	154.36734	1464.51855	315.43967	34.46883	1487.04871	519.07281	1674.27734	1398.34973	NaN	NaN	NaN	NaN	NaN	NaN	NaN	NaN	NaN	NaN	NaN	NaN	NaN	NaN	NaN
269	2.68	619.65405	1631.2782	1349.58508	617.07983	1636.49451	1482.0625	501.30121	1566.42285	1354.08875	503.52722	1571.97473	1484.52258	488.95541	1419.74963	1414.74866	455.69626	1108.15295	1415.73096	614.13361	1346.39832	1413.13306	657.31055	1181.21033	1412.19409	443.61917	1249.46106	1519.44885	567.66626	1380.95581	1257.61023	542.42688	1181.88794	1192.3999	538.28809	1057.82446	1184.81555	557.28564	928.92328	1189.29004	569.27051	810.75848	1224.00879	546.73016	815.97955	1172.41638	555.2536	731.65393	1186.43176	576.85962	1373.02319	1572.26392	603.92065	1152.96399	1646.8949	631.06281	1043.42773	1658.34314	663.58136	910.18353	1658.01843	699.65521	818.88934	1617.5719	675.48206	810.43298	1665.54956	703.90521	741.57764	1650.81152	625.70728	941.71521	1305.14758	615.48706	939.216	1541.78833	462.08331	970.65698	1344.78137	456.58301	978.58643	1494.58667	596.50012	641.36578	1265.60693	635.67786	468.63693	1310.27856	618.51843	276.39517	1310.5116	640.26709	69.00893	1352.56958	604.01831	34.7896	1391.35608	794.7699	36.87438	1364.87878	519.33191	648.61151	1589.5116	507.96735	467.7778	1570.70752	370.4595	327.79944	1569.25195	236.23485	156.73535	1520.19031	188.217	161.63599	1466.38684	316.93695	34.73228	1486.97607	525.37805	1674.052	1394.31763	NaN	NaN	NaN	NaN	NaN	NaN	NaN	NaN	NaN	NaN	NaN	NaN	NaN	NaN	NaN
